<svg xmlns="http://www.w3.org/2000/svg" width="256" height="256" viewBox="0 0 100 100"><rect width="100" height="100" rx="20" fill="#f3e8ff"></rect><path d="M71.56 55.54L71.60 48.73Q71.60 46.26 70.37 43.78Q69.14 41.30 66.81 39.69Q64.48 38.09 61.36 38.09L61.36 38.09Q59.73 38.09 57.67 38.95Q55.60 39.80 53.85 41.34Q52.09 42.88 51.34 44.77L51.34 44.77L50.90 62.66L51.08 63.97L51.25 65.34Q51.25 67.53 50.42 69.12Q49.58 70.70 48.35 70.70L48.35 70.70Q46.42 70.70 45.21 69.69Q44.00 68.68 44.00 65.91L44.00 65.91L44.13 64.99Q44.48 61.95 44.48 61.43L44.48 61.43L44.66 48.29Q44.70 45.69 43.69 43.08Q42.68 40.46 40.82 38.77Q38.95 37.08 36.57 37.08L36.57 37.08Q33.32 37.08 31.48 37.92Q29.63 38.75 28.86 40.55Q28.09 42.35 28.09 45.43L28.09 45.43L28.09 47.14Q28.09 49.56 28.36 54.22L28.36 54.22Q28.36 55.01 28.44 56.33L28.44 56.33L29.24 66.44Q29.24 67.71 28.62 68.72Q28.01 69.73 27.19 70.30Q26.38 70.87 25.90 70.87L25.90 70.87Q23.96 70.87 23.04 69.60Q22.12 68.33 22.12 64.90L22.12 64.90L22.12 64.46L22.16 63.40Q22.20 63.10 22.20 62.39L22.20 62.39L22.16 55.32Q22.12 53.74 22.12 51.19L22.12 51.19L22.12 44.16Q22.12 38.88 22.31 35.89Q22.51 32.91 23.17 31.28Q23.83 29.65 25.15 29.65L25.15 29.65Q27.74 29.65 27.74 34.31L27.74 34.31L27.74 35.10Q28.36 33.43 29.76 31.96Q31.17 30.49 32.99 29.57Q34.82 28.64 36.66 28.64L36.66 28.64Q38.99 28.64 41.89 29.83Q44.79 31.02 46.90 33.54Q49.01 36.07 49.01 39.85L49.01 39.85Q49.63 36.86 51.76 34.60Q53.89 32.33 56.66 31.13Q59.43 29.92 61.71 29.92L61.71 29.92Q69.40 29.92 73.64 35.43Q77.88 40.95 77.88 52.50L77.88 52.50Q77.88 60.37 76.87 65.86Q75.86 71.36 73.80 71.36L73.80 71.36Q72.70 71.36 71.75 70.50Q70.81 69.64 70.24 68.37Q69.67 67.09 69.67 66.00L69.67 66.00Q69.67 64.50 69.91 63.38Q70.15 62.26 70.59 60.90L70.59 60.90Q71.07 59.45 71.31 58.31Q71.56 57.16 71.56 55.54L71.56 55.54Z" fill="#8675a9"></path></svg>